<svg xmlns="http://www.w3.org/2000/svg" viewBox="0 0 400 400" id="Contact-4--Streamline-Milano.svg" height="400" width="400"><desc>Contact 4 Streamline Illustration: https://streamlinehq.com</desc><g fill="#e11d48"><path d="M124.42 71.06c0 2.82 1.7 2.8 2 3.72s-0.92 1.8 -1.42 2.42a0.26 0.26 0 0 0 0.3 0.4c0.78 -0.4 2.12 -2 1.84 -3 -0.14 -0.44 -0.54 -0.48 -0.88 -0.74a4 4 0 0 1 -1.74 -2.8c0.08 -0.14 -0.1 -0.1 -0.1 0zm-9.68 -2.7a9.4 9.4 0 0 0 0.2 2.6 0.54 0.54 0 1 0 1.06 -0.14 11.3 11.3 0 0 0 -0.58 -2.56 0.4 0.4 0 0 0 -0.68 0.1zm12.28 -1.36v1.46a3 3 0 0 0 0 1.34c0 0.3 0.58 0.44 0.72 0.1a4.84 4.84 0 0 0 -0.2 -3.04 0.3 0.3 0 0 0 -0.52 0.14zM114 64.68a7.14 7.14 0 0 0 -1.4 1.4 3.2 3.2 0 0 0 -0.82 1.56 0.22 0.22 0 0 0 0.34 0.18 4.52 4.52 0 0 0 1.02 -1.3c0.38 -0.52 0.76 -0.96 1.16 -1.5 0.2 -0.18 -0.08 -0.44 -0.3 -0.34zm13.2 -0.68a6.76 6.76 0 0 0 0.94 0.6c0.42 0.34 0.72 0.88 1.26 1.16 0.18 0.1 0.48 0 0.42 -0.24a2.82 2.82 0 0 0 -1.4 -1.68 2 2 0 0 0 -1.02 -0.44c-0.52 -0.02 -0.54 0.24 -0.2 0.6zM74.62 119.38A26.46 26.46 0 0 1 84.26 128a19.12 19.12 0 0 1 3.08 12.48c0 0.18 0.3 0.24 0.34 0 1.54 -8.8 -5.16 -17.74 -12.96 -21.12 -0.08 -0.1 -0.16 0 -0.1 0.02zM139.4 152.12a11.34 11.34 0 0 0 3.38 -0.72c0.2 0 0.2 -0.4 0 -0.4a11.56 11.56 0 0 0 -3.44 0.68 0.22 0.22 0 1 0 0.06 0.44zm1.26 11.5a18.9 18.9 0 0 0 3.34 -1.3c0.2 0 0 -0.34 -0.14 -0.34a15.2 15.2 0 0 0 -3.44 1.26c-0.1 0.08 -0.02 0.46 0.24 0.38zm1.44 10.14a9.32 9.32 0 0 0 2.94 -0.82 0.22 0.22 0 0 0 0 -0.42 10.44 10.44 0 0 0 -2.96 0.86c-0.32 0.1 -0.26 0.44 0.02 0.38zm1.46 9.62c0.72 -0.24 0.52 -0.24 1.24 -0.48a19.18 19.18 0 0 0 2 -0.68c0.2 0 0 -0.34 0 -0.34a4.28 4.28 0 0 0 -3.34 1.16 0.2 0.2 0 0 0 0.1 0.34zm141.6 37.84a1.5 1.5 0 1 0 -0.32 2.98 1.5 1.5 0 1 0 0.32 -2.98zm-147.06 59.02a4 4 0 0 0 -1.5 5.18 4.24 4.24 0 0 0 5.88 2.16c2.38 -1.4 2 -4.58 0.58 -6.52a4.36 4.36 0 0 0 -4.96 -0.82zm3.32 6.92a3.76 3.76 0 0 1 -4.54 -3.4 3.12 3.12 0 0 1 2.12 -3.22 3.26 3.26 0 0 1 3.4 0.96c1.2 1.84 1.6 4.9 -0.98 5.66z" stroke-width="1"></path><path d="M232 28.96c-0.56 -6.32 -0.44 -14.7 -6.18 -17.88 -3.14 -1.74 -7.58 -0.86 -10.98 -0.86 -65.5 0.7 -63.44 0.68 -67.32 1.16 -2.26 0.28 -4.78 0.82 -5.8 3.14a19.74 19.74 0 0 0 -0.96 6 84.52 84.52 0 0 0 0.38 20.84 11.66 11.66 0 0 0 4.44 8.22c2.96 1.88 6.68 1.74 10 1.48 -0.12 0.38 -0.28 1.04 -0.46 1.86 -6.68 -0.3 -13.46 -0.64 -20.18 -0.52 -0.48 -6.56 -5.02 -14.5 -11.54 -15.4a10 10 0 0 0 -9.4 3.56c-5.76 8.86 -12.14 8.62 -16.88 12 -12.42 -0.34 -35.84 -0.84 -38 -0.88a10 10 0 0 0 -6.68 1.54c-2.4 2.14 -2.16 6.24 -2.32 9.2 -0.96 17 -0.62 34.16 -0.32 51.22 0 6.88 0 14.28 0.6 21.18 -1.16 2 -2.24 3.86 -3.26 6 -5.32 10.78 -9.58 22.9 -8.8 35.08a19.76 19.76 0 0 0 12 16.86c-0.3 4.88 -0.78 12.42 4.84 14.26a33.48 33.48 0 0 0 9.76 1.08c4 0 43.74 0.28 59.64 0.14 1.06 4.74 3.24 9.22 4.64 14 1.5 5.02 3.24 10 4.54 15.02 0 0.24 0.4 0.24 0.54 0 3.08 -9.42 9.16 -18.3 12.76 -29.54a158.6 158.6 0 0 0 22 -0.34c6.42 -1.34 5.02 -10.28 5.12 -14.92a216.24 216.24 0 0 0 -0.68 -27.18 16.34 16.34 0 0 0 7.1 -6.52c3.54 -6.32 3.86 -14.64 3 -21.74a76.36 76.36 0 0 0 -9.4 -27.46c0.28 -4.28 0.14 -9.58 0.14 -13.84 0.28 -36.26 0.5 -36.66 -0.48 -39.26 -1.42 -3.76 -6.2 -4 -9.84 -3.56l1.82 -1.4a456.16 456.16 0 0 0 53.84 -0.44c6.46 -0.58 11.6 -3.38 12.76 -10.24a46.24 46.24 0 0 0 -0.44 -11.86zM101.5 70.58a1.5 1.5 0 0 1 1.7 -1.1c0.28 0 0.52 0.28 0.82 0.24s0.52 -0.44 0.62 -0.78a14 14 0 0 1 4.84 -7.4 10.34 10.34 0 0 1 3.52 -2.22c2.66 -0.62 7.36 0.96 10 0.58s2 -2 4.54 -1.7a3.84 3.84 0 0 1 2.66 2.14c1.54 3.14 1.6 10.72 1.88 12.94s0.48 4 0.64 6c-3.34 -3.24 -7.44 -1.5 -9.14 -1.06 -5.56 1.44 -8.32 6.62 -9.28 6.52s-2.86 -2 -4.6 -4C107.54 78.36 106.34 76 106 76s-0.66 0.82 -1.58 0.96a2.48 2.48 0 0 1 -2.42 -1.4 8.3 8.3 0 0 1 -0.5 -4.98zm48.2 43.12a5.04 5.04 0 0 0 -1.66 6 2.58 2.58 0 0 0 -0.34 0.3 8.56 8.56 0 0 0 -2.4 7.04A9.66 9.66 0 0 0 140 132.34 4.58 4.58 0 0 0 135.1 136a5.14 5.14 0 0 0 -1.34 -0.18c-0.78 -7.82 -1.5 -16.22 -1.46 -16.24a51.5 51.5 0 0 0 4.54 -6.98 30.52 30.52 0 0 0 3.28 -5.7 56.54 56.54 0 0 1 9.7 4.22 3.12 3.12 0 0 0 -0.12 2.58zm-9.1 19.8a2.94 2.94 0 0 1 1.12 1.12c0.52 0.88 0 1.5 -0.44 1.2 -0.96 -0.52 -0.68 -2.32 -0.68 -2.32zm-4.98 3.74s1.12 0.86 1.22 1.54 -0.68 1.26 -1.06 0.52a6.16 6.16 0 0 1 -0.16 -2.06zm-3.66 -18c-0.36 0.7 0.92 14.24 1.18 16.72a7.82 7.82 0 0 0 -4.82 2.9A6 6 0 0 0 122 138.2a6.32 6.32 0 0 0 -0.82 0.62 11.78 11.78 0 0 0 -3.18 -1.3c-2.54 -0.62 -4.26 0.84 -6.16 2.32a4.96 4.96 0 0 0 -0.52 -0.38c1.16 -0.48 4.3 -2.62 4.16 -4s-2.36 -0.52 -4 0.14v-12.94c-0.86 -1.34 -14.94 -12.28 -18.76 -15.66 2.38 -0.58 4.74 -1.06 7.16 -1.5A30.68 30.68 0 0 0 109.52 112a55.14 55.14 0 0 0 11.02 4.6 1.32 1.32 0 0 0 1.12 -0.34 59.08 59.08 0 0 0 9.72 -11.84c2.8 0.92 5.6 1.54 8.4 2.42 -1.68 1.74 -6 10.18 -7.78 12.32zm-2 23c0.3 0.82 0 2 -1.1 1.5s-0.72 -2.28 -0.4 -3.44a8 8 0 0 1 1.54 1.86zm-9.28 2c-1.24 0.3 -1.5 -1.06 -1 -2a10.6 10.6 0 0 1 1.3 -2 2.56 2.56 0 0 1 0.72 1.4c0.3 0.9 0.06 2.36 -0.92 2.5zm-11.6 22.12c-0.46 0.82 -2.22 0.88 -3.52 -0.96a1.54 1.54 0 0 1 0.64 -0.28 3.64 3.64 0 0 1 1.58 -0.24 1.66 1.66 0 0 1 1.32 0.74c0 0.26 -0.02 0.5 -0.02 0.74zm0.1 -2.54a5.42 5.42 0 0 0 -4.2 0.42 6.46 6.46 0 0 1 0.54 -7.1c0.88 1.26 2.46 2.98 3.86 2.64 -0.08 1.34 -0.14 2.68 -0.2 4.04zm0.28 -5.32a1.2 1.2 0 0 1 -1.04 0.14 4.68 4.68 0 0 1 -2.22 -2.12 6.78 6.78 0 0 1 0.86 -0.54 2.32 2.32 0 0 1 2.58 0.18zm-3.8 -3.14a3.86 3.86 0 0 1 2.22 -5.7 2.82 2.82 0 0 0 0.78 2.34c0.52 0.46 0.94 0.48 1.34 0.22 0 0.8 -0.16 1.58 -0.22 2.38a4.34 4.34 0 0 0 -4.12 0.76zm0.54 -5.52a3.68 3.68 0 0 1 2.26 -2.56 13.8 13.8 0 0 0 -0.52 1.88 9.2 9.2 0 0 0 -1.74 0.68zm2.74 1.7c-1.1 -0.82 -0.12 -3.68 0.24 -4.64 0 -0.24 -0.24 -0.38 -0.52 -0.3a7.2 7.2 0 0 0 -2 1.32 3.18 3.18 0 0 0 -0.96 2.32 4 4 0 0 0 -1.4 2.46c-2.1 2.44 -4 5.16 -5.84 7.74 -1.24 -1.56 -2.56 -3.1 -3.68 -4.6s-2.58 -3.66 -4 -5.38c8.2 -3.62 7.22 -11.76 13.22 -13.08 1.64 -0.34 3.3 0 4.88 -0.24 2.58 -0.4 5.54 -2.42 6 -1.32 0 0.2 -0.96 1.26 -1.1 1.42a15.4 15.4 0 0 1 -2.9 2.16 0.16 0.16 0 0 0 0 0.3 7.64 7.64 0 0 1 2 3.38c0.6 1.6 -2.68 9.38 -3.94 8.46zm11.84 -35.86c-7.76 -3.1 -15.42 -6.12 -20.48 -10.58a29.18 29.18 0 0 0 1.7 -18.82 49.72 49.72 0 0 0 10.98 12.82c4.34 3.52 12 6.16 17.46 4.7a47.22 47.22 0 0 1 -9.66 11.88zM122 84.36a5.84 5.84 0 0 0 2.46 1.34 5 5 0 0 0 2.96 -0.66 0.38 0.38 0 0 1 0.42 0.58 4 4 0 0 1 -6.18 -0.98c-0.14 -0.18 0.1 -0.38 0.34 -0.28zM51.62 56c1.42 -4.44 7.08 -3.48 12.48 -3.38 10.78 0.22 21.56 0.44 32.34 0.52 -7.32 6.18 -6.12 19.2 2 25.72A42 42 0 0 0 100.8 84a30.46 30.46 0 0 1 -0.8 20.84 96 96 0 0 0 -20.28 5.36 57.88 57.88 0 0 0 -28.54 23.46c-0.82 -15.84 -1.48 -70.86 0.44 -77.66zm-12.46 119.5c-0.64 -11.78 3.42 -23.48 8.6 -34C57.4 122 71.2 112.32 92.36 107.08c3.24 3.42 17.32 14.88 18.62 15.8 -0.24 4.32 -0.16 8.72 -0.16 13.04 -2.24 1 -4.58 0.3 -6.94 0.78 -4.16 0.8 -5.8 5.56 -7.5 8.16a16.92 16.92 0 0 1 -6 5.24c-0.36 -0.44 -0.74 -0.86 -1.14 -1.28a12.46 12.46 0 0 0 -2 0.92C72.6 158 68.58 162.82 54.86 170c-0.1 0 0 0.26 0.1 0.2 8.58 -2.9 15.68 -9.5 25.18 -15.46 3 -1.88 8.84 -5.18 9 -5.18 1.54 2.62 3.8 5.04 5.6 7.5a77.08 77.08 0 0 0 5.42 7.16 40 40 0 0 1 -6.54 9.18c-7.38 8.6 -15.76 16.94 -26.76 19.76 -12.86 3.22 -26.98 -3.44 -27.7 -17.66zm26.48 31.84 -4 -0.12c-3.2 -0.2 -7.78 -0.16 -9.48 -3.34s-1.42 -7.36 -1.36 -10.88a25.18 25.18 0 0 0 14.82 1.14 103.8 103.8 0 0 0 0.02 13.2zm0.68 0a78.4 78.4 0 0 0 0 -13.36c11.26 -2.6 19.58 -10.62 27.06 -19.16a44.5 44.5 0 0 0 7.58 -10.54 0.46 0.46 0 0 0 0 -0.4 33.12 33.12 0 0 0 -2 -2.94 63 63 0 0 0 5.38 -7.44 5.6 5.6 0 0 0 0.72 2.66 7.56 7.56 0 0 0 -1.48 7.84c0.1 0.26 0.3 0.58 0.48 0.92 -3.72 2.4 -5.7 7.54 -3.76 11.02a10.44 10.44 0 0 0 -4.88 8.46 9.62 9.62 0 0 0 -2 0.64 7.36 7.36 0 0 0 -4.92 5.88A10.62 10.62 0 0 0 81.44 196a7.52 7.52 0 0 0 -5.12 6.92 6 6 0 0 0 -2.66 4.48zm15.56 -10.16s2.42 1.02 2.86 2.24 -1.74 1.74 -2.42 0.86a6.22 6.22 0 0 1 -0.44 -3.08zm-5.36 6.92a0.2 0.2 0 0 0 0 0.14 3.78 3.78 0 0 0 4.6 2.66c1.5 -0.48 2.18 -1.64 1.4 -3.04a3.64 3.64 0 0 0 -4.84 -1.64 5.36 5.36 0 0 1 3.2 -4.7 4.2 4.2 0 0 0 1.06 3.78 2.42 2.42 0 0 0 3.72 -0.14c1.32 -1.78 -0.78 -4.72 -3.04 -5.14a8.44 8.44 0 0 1 6 -4v0.68c0.14 1.06 0.38 2.68 1.36 3.34a1.82 1.82 0 0 0 2.56 -0.58A4.7 4.7 0 0 0 92 191.8a2.56 2.56 0 0 0 -2.28 -1.02 7.78 7.78 0 0 1 6 -5.42c0 0.22 0.64 2.74 2.28 3.48a2.36 2.36 0 0 0 3.08 -1.16c0.36 -1 -0.72 -2.6 -1.6 -3.08a4.6 4.6 0 0 0 -2.74 -0.44 9.84 9.84 0 0 1 4.48 -7.44c1.82 1.48 4.8 1.48 5.32 -0.58 0.64 -2.52 -3.48 -1.74 -4.68 -1.12a4.78 4.78 0 0 1 -0.44 0.24 6.78 6.78 0 0 1 0 -5.16 9.88 9.88 0 0 1 3.52 -4.36c1.16 1.4 2.88 2.76 4.28 2.34 -0.14 3.7 -1.38 30 -1.56 39.44H75.02a4.46 4.46 0 0 1 1.5 -3.4zm1.06 -0.62a4.44 4.44 0 0 1 3.44 0.52c0.28 0.2 1 2.18 -0.98 2a2.74 2.74 0 0 1 -2.46 -2.5zm12 -11.36a1.8 1.8 0 0 1 1.6 1.1c0.36 0.74 0.4 2.84 -0.88 1.74 -0.62 -0.46 -0.74 -1.86 -0.78 -2.82zm7.06 -6.82a4 4 0 0 1 1.54 0.24c1.12 0.44 2.42 2.46 0.34 2.18 -0.96 -0.14 -1.36 -0.98 -1.7 -1.84a3.22 3.22 0 0 1 -0.24 -0.56zM102 176.24c0.1 0 0.14 -0.1 0.24 -0.1a3.2 3.2 0 0 1 1.76 -0.54c2.14 0.4 -0.42 1.8 -2 0.64zM134.12 236c-2.6 -9.38 -9 -28.2 -9.28 -28.38s-7.32 -0.12 -16.9 -0.12c0.9 -13.42 0.72 -18.64 2 -40a2.48 2.48 0 0 0 0.06 -3c0.3 -6 0 -5.08 0.4 -5.48a2.9 2.9 0 0 0 -0.12 -4.18v-2.94a20.5 20.5 0 0 0 3.1 -6.16 5 5 0 0 0 -0.84 -5.24c2.28 -1.74 4 -2.76 6.98 -1.38a4.84 4.84 0 0 1 0.9 0.48c-1.64 1.84 -2.98 4.74 -0.18 5.6 2.32 0.72 2.94 -2.66 2.6 -4.3a3.36 3.36 0 0 0 -0.82 -1.4 5.28 5.28 0 0 1 6 0.14 6.94 6.94 0 0 0 -0.3 1.46c0 1.02 -0.24 3 0.82 3.62a2.34 2.34 0 0 0 2.66 -0.48c0.64 -0.82 0.16 -2 -0.24 -2.7a6.58 6.58 0 0 0 -1.84 -2.18 7.22 7.22 0 0 1 4.1 -2.5c2.84 26.36 9.2 64.2 10.24 78.16 -3.8 9.42 -7.02 13.94 -9.34 20.98zm38.96 -34.2a5.46 5.46 0 0 1 -5.32 4.92c-1.72 0.14 -5.5 0.26 -9.42 0.3 0.62 -12.92 0.62 -26.42 0 -39.34 4.34 1.26 10.74 -0.28 14.64 -2 0.26 10.58 1.18 29.92 0.1 36.12zm8.6 -48.24a16.86 16.86 0 0 1 -10.96 12c-3.68 1.36 -8.6 2.42 -12.48 1.16 -0.34 -6.24 -0.76 -12.42 -1.34 -18.6 -0.54 -5.32 -1.08 -10.92 -3.64 -15.72 0 -0.18 -0.42 0 -0.34 0.16A57.78 57.78 0 0 1 156.4 150a445.02 445.02 0 0 1 1.08 56.96c-11.3 0.12 -10.5 -0.36 -10.84 0A51.08 51.08 0 0 0 144 213.6c-1.42 -16.8 -7.78 -53.04 -10.2 -76.8a11.24 11.24 0 0 1 1.14 0.18c-0.2 1.38 -0.22 3.4 1.16 3.64a1.76 1.76 0 0 0 1.88 -1.46c0.14 -1.26 -1.06 -2.32 -2.12 -2.8a4 4 0 0 1 3.66 -3.14 1.12 1.12 0 0 1 0.34 0 4 4 0 0 0 0 0.98c0.16 0.96 0.54 2.6 1.8 2.46 2.32 -0.24 0.86 -3.1 -0.82 -4A8.24 8.24 0 0 1 145.54 128c0.26 1.26 1.54 3.76 2.84 3.62a1.52 1.52 0 0 0 1.4 -2 3.86 3.86 0 0 0 -3.58 -2.6 7.62 7.62 0 0 1 2.32 -6.48c1.42 1.74 6.34 2 4.94 -0.78 -0.68 -1.4 -3.04 -1.06 -4.6 -0.34a4.36 4.36 0 0 1 1.14 -4.9c0.62 1.26 1.74 2.32 2.9 1.58a1.52 1.52 0 0 0 0.52 -2.1c-0.66 -0.8 -2.32 -0.68 -3.2 -0.44a3.06 3.06 0 0 1 0.34 -2 11.88 11.88 0 0 1 3.66 3.34 74.74 74.74 0 0 0 3.78 18.8 52.24 52.24 0 0 0 2.9 8.7c0.14 0.3 0.48 0 0.42 -0.2 -0.54 -3.76 -1.62 -4.54 -4.88 -17.1A129.68 129.68 0 0 1 154 106.92c3.04 -0.98 5.36 -1.82 7.5 -2.74a17 17 0 0 0 6 -4c10.5 14.7 19.1 36.28 14.18 53.38zm-35.38 -25.8s3.82 1.44 2.18 2.7c-1.16 0.92 -2.18 -2.7 -2.18 -2.7zM149.16 120c0.82 -0.24 3.46 -0.64 2.9 0.38s-2.86 -0.26 -2.9 -0.38zm1.36 -5.76s2.5 -0.44 2.16 0.82 -2.16 -0.74 -2.16 -0.74zm4.44 -25.24a12.34 12.34 0 0 0 -3.14 0.58s-1.06 -0.3 -1.3 -0.82a1.58 1.58 0 0 1 0.72 -1.74c0.96 -0.68 2.12 -0.48 3.24 -0.74a0.14 0.14 0 0 0 0 -0.28 4.12 4.12 0 0 0 -3.82 0.82c-1.16 0 -3.24 -0.78 -1.64 -2.12a6.26 6.26 0 0 1 2.4 -0.68 6.52 6.52 0 0 1 5.14 0.24c2.9 2 4.14 5.26 5.46 8.4s2.28 5.88 3.24 8.88a38.46 38.46 0 0 1 -8.74 4.18 13.62 13.62 0 0 0 -0.4 -3.2 11.1 11.1 0 0 0 2 -6.7 10.62 10.62 0 0 0 -1.32 -4.26 28.44 28.44 0 0 1 -4.44 0.82c-1.28 -0.26 -1.48 -2 0.14 -2.42a21.12 21.12 0 0 0 2.56 -0.78l-0.1 -0.18zm-3.72 1a2.12 2.12 0 0 0 -0.54 1.06s-1 0.14 -2.6 -1.7a2.74 2.74 0 0 1 0 -2.74 2.58 2.58 0 0 0 2 0.86v0.2a1.6 1.6 0 0 0 1.14 2.32zm1.84 18a3.28 3.28 0 0 1 -0.54 -3.82 4.84 4.84 0 0 0 3.04 -1.2A22.12 22.12 0 0 0 156 106a22.24 22.24 0 0 0 -2.34 0.84c0 0.12 0 3.08 0.38 6.76a10.46 10.46 0 0 0 -3.02 -2.82 7.28 7.28 0 0 1 2 -2 0.36 0.36 0 0 0 0.06 -0.78zm17.06 -54.22c3.82 1.12 3.62 5.26 3.72 8.46 0.18 6.86 0 13.68 0 20.54 -0.18 8.5 0 17.02 -0.28 25.52a56.64 56.64 0 0 0 -6 -8.76c-0.14 -0.14 -0.34 0.16 -0.34 0.16a10.56 10.56 0 0 1 -1.46 1.34 64.12 64.12 0 0 0 -5.78 -14 10.98 10.98 0 0 0 -3.82 -3.78 7.46 7.46 0 0 0 -3.14 -0.2l-6 -10c-4.2 -5.56 -11.02 -1.36 -11.02 -1.36 -2 0.92 -2.32 7.02 1.84 9.78s8 -1.56 8 -1.56l2.46 4a1.7 1.7 0 0 0 -0.64 0.68 2 2 0 0 0 0.16 1.4 2.56 2.56 0 0 0 -0.2 3.24 4.78 4.78 0 0 0 1.6 1.44 11.62 11.62 0 0 0 1.4 0.5 2 2 0 0 0 0.48 0.92s-4.98 0.28 -5.36 2.8 -0.48 8.88 6 9.08c-1.04 2.28 0.38 2.9 0.28 3.78s-1.02 1.02 -1.72 2.2a53 53 0 0 0 -6 -2.74 42.66 42.66 0 0 0 -13.28 -3.84c3.78 -1.24 6.36 -4.6 5.84 -11.24 -0.5 -6 -1.74 -9.76 -3.3 -12a44.92 44.92 0 0 0 -0.58 -5.14c-0.38 -2.8 -0.62 -5.64 -0.96 -8.44a33.1 33.1 0 0 0 3 -13.54c6.66 0.1 13.32 0 20 0.26a34.18 34.18 0 0 0 -0.88 5.78c0 0.2 0.34 0.2 0.34 0.2a60.22 60.22 0 0 0 8.82 -6.1 26.56 26.56 0 0 1 6.82 0.7zm57.22 -5.76a19.72 19.72 0 0 1 -10 2.38c-17.16 0.96 -34.4 0.72 -51.56 0.34 -0.2 0 -9.38 7 -11.08 8.3a57.64 57.64 0 0 0 1.74 -8.74c-3.24 0.2 -7.34 0.48 -10.2 -1.26 -3.38 -2 -4.2 -6 -4.58 -9.72a86.16 86.16 0 0 1 -0.54 -11.32 48.52 48.52 0 0 1 0.96 -12c1.28 -4.64 4.78 -4.44 21.8 -4.64 7.3 0 52.14 -0.54 55.82 -0.58a12 12 0 0 1 5.84 0.76 9.22 9.22 0 0 1 4 5.04 40.38 40.38 0 0 1 1.54 10c0.56 7.54 2.66 17.28 -3.74 21.52z" stroke-width="1"></path><path d="M166 29.46c-2.78 -2.5 -6.96 2.16 -4.4 4.54a3.76 3.76 0 0 0 4.58 0 2.94 2.94 0 0 0 -0.18 -4.54zm-0.3 3.9a3.2 3.2 0 0 1 -3.58 0.16c-1.52 -1.2 0.36 -4.24 1.74 -4.36a2.22 2.22 0 0 1 2.52 2.28 2 2 0 0 1 -0.6 1.92zm23.14 -4.98c-3.06 -2.68 -6.96 2.18 -4.4 4.56a3.78 3.78 0 0 0 4.6 0 2.96 2.96 0 0 0 -0.2 -4.56zm-0.3 4a3.16 3.16 0 0 1 -3.56 0.14c-1.36 -1.06 0 -3.8 1.74 -4.34 0.66 -0.14 2 0.24 2.5 2.28a2 2 0 0 1 -0.68 1.84zM209.04 28c-3.4 -2.54 -6.96 2.18 -4.4 4.54a3.78 3.78 0 0 0 4.6 0 2.88 2.88 0 0 0 -0.2 -4.54zm-0.24 4a3.24 3.24 0 0 1 -3.58 0.14c-1.1 -0.86 -0.38 -2.66 0.44 -3.52a2.12 2.12 0 0 1 3.82 1.44 2.18 2.18 0 0 1 -0.68 1.94zm146.3 55.78c-0.16 -12.58 -8.98 -21.36 -20.44 -25.84 -8.34 -3.46 -25.24 -4.84 -39.34 -0.98 -27.56 7.5 -40.4 35.4 -20.8 54.86 6.3 6.28 14.66 11.5 23.84 11.3 -0.98 3 -1.16 6.2 -2.66 9 0 0 0.14 0.54 0.34 0.44a43.22 43.22 0 0 0 11.36 -9.34c21.06 2.86 41.18 -12.22 45.76 -26a44.38 44.38 0 0 0 1.94 -13.44zm-6 19.24a44.7 44.7 0 0 1 -41.76 19.28c-0.24 0 -7.06 6.2 -10.54 8.94a42 42 0 0 0 2 -8.84 34.36 34.36 0 0 1 -22 -9.46c-5.9 -5.38 -10.44 -12 -10.88 -20.22 -0.92 -15.7 11.02 -28.22 24.98 -33.38a66.32 66.32 0 0 1 24.36 -3.68c8.22 0.14 16.74 1.12 23.78 5.66 6.72 4.3 13.5 9.8 14.36 18.22 0.92 7.96 0.36 16.62 -4.2 23.48zM51.14 246.74a68.14 68.14 0 0 0 -6.42 -10.74c0 -0.28 -0.44 -0.52 -0.58 -0.18 -2 3.62 -4.64 6.9 -6.68 10.48 -0.24 0 -0.34 0.48 0 0.54a90 90 0 0 0 13.54 0.62c0.2 -0.04 0.2 -0.62 0.14 -0.72zm-13.14 -0.46a74.36 74.36 0 0 0 6.56 -10 73.6 73.6 0 0 0 5.8 10.5c-4.24 0.06 -8.16 -0.26 -12.36 -0.5zM30.8 218a17.3 17.3 0 0 0 -0.24 -5.02c0 -0.28 -0.48 -0.44 -0.58 0a36.78 36.78 0 0 0 0.18 5.04 0.36 0.36 0 0 0 0.64 -0.02zm0.18 4a0.22 0.22 0 0 0 -0.42 0 9.32 9.32 0 0 0 0.14 5.28 0.44 0.44 0 0 0 0.86 0v-0.16c-0.16 -0.42 -0.34 -4.28 -0.58 -5.12zm5.66 -2.46A8.74 8.74 0 0 0 32 220a0.22 0.22 0 0 0 0 0.44 30.22 30.22 0 0 0 4.68 -0.1 0.38 0.38 0 0 0 -0.04 -0.8zm-7.72 0.04a18 18 0 0 0 -4.4 0 0.28 0.28 0 0 0 0 0.54 15.44 15.44 0 0 0 4.4 0 0.28 0.28 0 0 0 0 -0.54zm245.66 -190.52a25.78 25.78 0 0 0 -0.48 -6.32 0.18 0.18 0 0 0 -0.34 0 23.46 23.46 0 0 0 0.18 6.38c0.06 0.42 0.64 0.28 0.64 -0.06zm-0.1 4.02c0 -0.14 -0.34 -0.2 -0.34 0a20.42 20.42 0 0 0 0.34 5.74 0.32 0.32 0 0 0 0.62 0 23.84 23.84 0 0 0 -0.62 -5.74zm5.52 -2.42a25.2 25.2 0 0 0 -4.36 0.38c-0.34 0 -0.18 0.54 0 0.54a12.7 12.7 0 0 0 4.36 -0.48 0.3 0.3 0 0 0 0 -0.44zm-7.8 -0.24a20 20 0 0 0 -4.24 0.48 0.2 0.2 0 0 0 0 0.38 20 20 0 0 0 4.24 0c0.54 0 0.54 -0.92 0 -0.86zM348 171.5c0.3 0.14 0.74 0 0.58 -0.44 0 0 -0.76 -6 -1.06 -7 0 -0.24 -0.38 -0.2 -0.44 0 -0.06 1.68 0.34 7.04 0.92 7.44zm0.52 4.16c0 -0.4 -0.52 -0.4 -0.58 0a40.52 40.52 0 0 0 0 7.14 0.3 0.3 0 0 0 0.54 0 34 34 0 0 0 0.04 -7.14zm6.1 -2.38a20.36 20.36 0 0 0 -5.62 0.34c-0.14 0 -0.18 0.3 0 0.34a19.6 19.6 0 0 0 5.62 0c0.28 -0.14 0.34 -0.62 0 -0.68zm-8.46 -0.44a37.58 37.58 0 0 1 -4.98 0c-0.34 0 -0.34 0.42 0 0.52a10.38 10.38 0 0 0 5.08 0.44c0.42 -0.12 0.42 -1 -0.1 -0.96zm22.12 -24.34c-3.42 0.96 -2.36 8.94 2 7.28s2.32 -9.6 -2 -7.28zm2 6.28c-3.06 1.68 -4.22 -3.64 -2 -5.62 3.3 -1.58 4.54 4.2 2 5.62zm15.6 195c-6.18 -6.86 -32 -34.7 -32.52 -34.94a30.88 30.88 0 0 0 -10 -0.14 40.46 40.46 0 0 0 5.8 -23.64c-0.64 -11.8 -5.76 -23.38 -12.56 -36.12 0.72 -2.26 2.32 -10.14 -6.28 -19.36 -10 -10.78 -1.7 -16.58 -1.7 -16.58s10.54 -8.94 -0.64 -19.18 -11.68 -9.28 -11.26 -16.82 1.28 -33.74 -24.84 -43 -31.46 5.62 -33.26 6.86c0 0 -0.3 0.48 0 0.4 0 0 25.52 -2.18 28.76 29.72 0 0 5.8 -0.54 6.18 9.62a9.26 9.26 0 0 1 -9.76 7.88 31.16 31.16 0 0 0 0.98 -3.14 0.32 0.32 0 0 0 -0.58 -0.24c-0.58 1 -1.06 2 -1.6 3.14a9.4 9.4 0 0 1 -5.46 -2.9 10.66 10.66 0 0 1 -1.46 -9.78c1.26 -5.04 6.92 -4.58 6.92 -4.58 0.54 -3.54 -2.8 -12.14 -2.8 -12.14 -5.42 -13.86 -22.24 -16.52 -22.24 -16.52 -8 -2.42 -16.62 5.5 -16.62 5.5 -13.34 12.58 -2 28.76 -2 28.76s4.34 2.56 -7.16 10.34 -3.66 18.76 -3.66 18.76 3.66 4 0 7.2c-3.1 2.64 -5.46 8.86 -6 10.6 -8.7 6 -26.4 22.72 -31.4 29.64l-2.44 -10.8 -3.52 4.3 15.02 69.16c-14.7 -1 -81.26 -5.7 -88.7 -5.8 -2.32 -11.3 -12.38 -56 -14.98 -66.92l88 2.5 3.52 -3.78 -87.38 -2.66a60.14 60.14 0 0 0 -5.16 3.82c1.84 8.82 10.2 45.02 13.82 60.6 -2 0 -10 0 -14.16 0.2 0 -7.12 -0.72 -27.72 -1.26 -32.76 0 -0.2 -22.58 -1.12 -22.68 -1.02a264.86 264.86 0 0 0 -15.84 21.56s0.2 5.54 0.46 11.84a8.8 8.8 0 0 0 -3.26 0.28c-1.46 0.64 -30 33.46 -38 41.38 0 0 -0.16 7.22 -0.14 9.02 1.42 0.6 11.46 0.54 13.3 0.6V390h345.8v-29.48c4.16 0 8.36 -0.34 12.56 -0.3 0.2 0 0.44 -0.34 0.5 -0.42a38.48 38.48 0 0 0 -0.3 -10.02zm-87.54 -133.18a9.24 9.24 0 0 1 5.86 6.66c0.14 0.46 9.68 34.62 16 45.28 0.14 0.2 0.38 0 0.34 -0.18 -2.6 -6.12 -9.82 -27.44 -13.5 -38.84a62 62 0 0 1 27.36 22.94c5.48 10 10.7 20 13.02 31.02 2.74 12.9 0.48 28.22 -10.26 36.98 -6.76 5.56 -16.58 6.18 -24.98 4.82a33.32 33.32 0 0 1 -17.5 -9.18c-11.02 -10.64 -14.7 -26 -15.7 -40.74a371.26 371.26 0 0 1 1.34 -55.78 61.42 61.42 0 0 1 18.02 -2.98zm-14.48 1.2c0.14 -0.48 0.24 -1.02 0.38 -1.54a4.56 4.56 0 0 1 4.12 -3.48 30.16 30.16 0 0 1 6.94 -0.52c0.52 0 2.42 0.5 2.94 3.48a57.1 57.1 0 0 0 -14.38 2.06zm2.8 -13.34s1.44 0.48 1.36 -2 -0.2 -7.3 0.76 -7.64c0 0 2 -0.92 2 5.56 0 0 0.44 3.28 1.2 3.28a2 2 0 0 0 0.74 -2.22c-0.4 -1.5 -0.4 -7.88 0.86 -7.72 0 0 1.6 -0.16 1.36 4.72a39.76 39.76 0 0 0 0.62 6.48c0.4 0.24 2.7 -3.58 3.68 -2.56s0.48 2.32 -0.4 3.78l-3.16 5.42a22.44 22.44 0 0 0 -9.74 1.34c-0.82 -2 -3.44 -12.52 -1.82 -14.96 0.64 0.06 2.14 0.84 2.54 6.52zM249 173.38c1 -11.38 9 -10.64 9 -10.64 6.54 17.84 14.66 18.74 16.74 18.74a10.9 10.9 0 0 0 1 9.6 9.38 9.38 0 0 0 6.34 4c-2 4 -3.82 7.62 -8 10a4.28 4.28 0 0 0 -2.52 -0.14l0.54 1.26s0.2 1.2 -0.88 0.58l-0.96 -1.2s-1.68 0.66 -2 1.34l0.66 0.96s0.34 1.12 -0.76 0.68l-0.88 -0.92a2.46 2.46 0 0 0 0.34 3.68s2 1.5 5.42 -1.3c2 -1.74 2 -3.14 1.64 -4a20.42 20.42 0 0 0 8.66 -10.64l0.76 0.14a16.2 16.2 0 0 0 -0.36 1.76c-1.76 2 -0.2 13.4 1.52 15.78 -1.58 1.12 -1.44 2.82 -2.16 4.94a11.86 11.86 0 0 0 -3.3 1.2c-0.24 2.14 -0.48 4.26 -0.68 6.38 -2 1.4 -9.76 8.86 -11.68 10.74 -1.48 -2.86 -6 -13.74 -8.42 -18 0.22 -0.42 0.18 0.28 -0.34 -8.18 -8.12 -1.6 -9.46 -5.6 -10.44 -10.92s0.76 -25.84 0.76 -25.84zm8.62 45.72a1.32 1.32 0 0 0 0.98 -0.2c2.52 6.18 5.22 12.18 8.3 18.18 0.14 0.34 0.52 0.24 0.72 0s10 -8.76 11.54 -10.58c-0.52 5.7 -0.92 11.46 -1.2 17.2 -2.32 1.12 -11.7 5.46 -13.82 6.76 -5.56 -3.52 -9.18 -9.66 -14.84 -12.9a39.5 39.5 0 0 0 3.68 -5.16 0.66 0.66 0 0 0 -0.16 -0.44c-1.74 -1.88 -8.48 -7.46 -12 -10.32a68.32 68.32 0 0 1 16.8 -2.54zm-66.78 41.04c4.7 -5.82 30.14 -33.1 49.16 -38.3 3.08 2.7 10.56 9.28 12.48 10.5a52.24 52.24 0 0 0 -3.76 5.18 0.24 0.24 0 0 0 0.2 0.34c2.6 2.26 12 11.3 14.68 13 -1.26 8.98 -3.64 46 -3.48 55.34a0.32 0.32 0 0 0 0.64 0c0.34 -9.24 2.36 -46 3.32 -55.1 0.2 0 11.7 -5.42 14 -6.72a293.66 293.66 0 0 0 0.24 29.68c0.9 13.86 3.86 28.28 12.82 39.14 -5.28 -0.12 -23.76 0.32 -29.54 0.68V312s-22.12 -1.12 -39.82 -1.84c-0.94 -10.78 -2.56 -22.52 0 -35.46a106.22 106.22 0 0 1 3.28 -11.52s0 -0.14 -0.14 0c-4.9 9.28 -5.72 22.74 -5.28 33.16a21.22 21.22 0 0 1 -8.12 7.38c-3.86 2 -7.12 1.18 -10.78 -0.2zm30 50c-8.36 -0.34 -15.62 -0.58 -18.94 -0.6l-1.18 -5.24c6.52 3.84 14.92 -0.76 18.82 -6.7a108.26 108.26 0 0 0 1.38 12.58zM94 312c-0.82 2 -2.96 10.34 -3.48 12.32 0 -4.12 -0.78 -25.76 -0.74 -26 1.12 -6 2.32 -12.22 3 -18.42 -0.22 5.02 0.22 26.64 1.22 32.1zm-5.76 17.4a69.2 69.2 0 0 0 12.96 -11.12c-0.68 3.66 -5.42 18 -6 21.64a109.66 109.66 0 0 0 -6.94 -10.52zm6.44 11.1a167.08 167.08 0 0 1 -23.26 -0.18c2 -0.88 13.68 -6.62 17.36 -8.84 1.76 3.08 3.98 6.08 5.92 9.02zm-6.82 -11.74s-0.24 0.4 -0.2 0.44a18 18 0 0 0 0.82 1.64c-2.94 1.74 -18 9.38 -18.12 9.38a122.56 122.56 0 0 1 4.84 -13.44c4.88 0 15.26 -0.38 15.36 -0.68 0.86 -2.42 2.36 -8.16 2.46 -8.46a56.74 56.74 0 0 0 7.84 0.54c-4.44 3.44 -8.4 7.34 -12.98 10.58zm-32.32 -26.44c5.24 0.5 30.54 0.4 33.26 0 0 0 0.1 3.24 0.14 4.84 -1.64 0.34 -27.06 -0.44 -33.26 -0.14 0 -1.7 -0.04 -3.02 -0.14 -4.7zM89.04 308c0 1.5 0.24 5.32 0.24 5.7 -5.52 -0.54 -27.8 -0.38 -33.3 -0.2 0 -0.52 -0.24 -4.3 -0.24 -5.8 6.56 -0.06 31.74 0.52 33.3 0.3zm0.24 6.38c0 1.68 0 3.38 0.18 5.06 -0.42 0.5 -27.88 0.16 -33.1 1.16 -0.14 -2.22 -0.28 -4.38 -0.38 -6.62 5.5 0.28 27.78 0.82 33.3 0.34zm0.18 5.88c0.1 1.84 0.3 3.68 0.54 5.52 0 0 -28 -0.28 -33.32 0.46 -0.1 -1.8 -0.18 -3.22 -0.32 -5 5.9 -0.64 31.32 -0.26 33.1 -1.04zm2.96 -42.38c-1.22 6.68 -2 13.4 -3.24 20 0 0 -8.28 -7.02 -12.58 -10.22l2.38 -1.28c0.24 -0.16 -1.74 -2.24 -2.56 -3.1 5.32 -1.4 16 -5.46 16 -5.46zM88.6 298c-5.7 0 -27.16 -1.12 -32 -0.58a178 178 0 0 0 19.76 -9.58A157.36 157.36 0 0 0 88.6 298zm2.36 -20.26c-4.98 1.66 -14.88 5.18 -14.88 5.18a65 65 0 0 0 -5.22 -6.52c3.28 0.74 16.88 1.14 20.1 1.32zm-27.88 9.82a116.64 116.64 0 0 0 7.5 -10.62 107.28 107.28 0 0 0 7.54 9.18c-7.46 3.78 -14.7 7.18 -22.14 11 2.56 -2.96 4.78 -6.4 7.1 -9.58zM55.2 298c5.52 0.58 28.18 1.06 33.78 0.82a19.04 19.04 0 0 1 -0.28 3.04c-2.72 -0.34 -27.64 0 -33.2 -0.14 -0.06 -1.32 -0.34 -3.72 -0.3 -3.72zm-4 12.94a6.6 6.6 0 0 1 4 -1c0.28 6.76 0.6 14.22 0.78 16.68 0 0.32 18.26 0.14 18.56 0.18 -0.2 0.14 -4.88 13.64 -4.84 13.72s17.02 1.56 25.14 0.68c0.24 0 0.52 -0.48 0.58 -0.58 1.64 -3.48 6.18 -18.84 6.12 -22.66 0 -0.2 0 -0.44 -0.38 -0.48 -2.66 -0.14 -5.36 -0.34 -8 -0.4 0.44 -1.58 1.3 -4.96 1.36 -5.16s0 -0.86 0 -1.64c4.72 0 9.62 -0.14 14.34 0 0.92 4 1.5 6.42 1.5 6.42 7.2 1.12 94.54 6.14 94.54 6.14l-2.76 -12.32c10 1.12 52.88 2 53.62 2.1l-50.52 4.14 1.44 6 54.76 -4.6v-3.64c5.78 0 24.86 -0.24 30.18 -0.6a35.64 35.64 0 0 0 18.3 11.64c12.84 3.08 25.58 0.6 33.02 -10.3a85.32 85.32 0 0 1 10 0.1c1.6 1.02 29.04 31.26 31.9 34.4 -10.74 0.54 -367.9 1.26 -370 1.26 7.4 -7.32 34.56 -38.64 36.44 -40.1zm334 48.58c-4 -0.14 -368.38 -0.24 -371.04 -0.28 0 -2.48 0 -7.6 0.14 -7.64 23.88 0.62 370.9 -0.88 371.32 -0.88a142.5 142.5 0 0 0 -0.36 8.78z" stroke-width="1"></path><path d="M280 178.94c-3.38 3.14 -3.14 10.88 1.5 12.86 0.24 0 0.48 -0.24 0.24 -0.4 -4.74 -2.7 -3.76 -8.4 -1.5 -12.32 0.14 -0.14 -0.06 -0.28 -0.24 -0.14zm-14.32 1.06c0 -0.24 -0.44 -0.24 -0.48 0a11.06 11.06 0 0 0 -0.24 3.72c0 0.82 1.12 0.4 0.96 0a9.66 9.66 0 0 0 -0.24 -3.72zm-14.26 -0.82a10.38 10.38 0 0 0 0 3.24c0 0.38 0.74 0.38 0.78 0a19.52 19.52 0 0 0 -0.14 -3.24 0.28 0.28 0 0 0 -0.64 0zm1.06 -3.72c-0.9 -0.24 -2.56 0.24 -2.84 1.3 0 0.2 0.2 0.4 0.34 0.24a24 24 0 0 1 2.6 -1c0.2 0 0.16 -0.44 -0.1 -0.54zm5.28 9.76a0.1 0.1 0 0 0 -0.2 0c-0.34 1 -2.94 2.84 -3.04 3.38 -0.3 1.26 1.54 1.78 2.46 2a0.26 0.26 0 0 0 0.2 -0.48c-0.44 -0.34 -1.22 -0.48 -1.6 -0.88 -0.78 -0.82 1.98 -3.1 2.18 -4.02zm10.58 9.96c-2 3.1 -4.74 3.62 -8.16 2.9 -0.16 0 -0.24 0.2 -0.1 0.24a6.68 6.68 0 0 0 8.22 -1.88c0 1.54 -2 3.82 -2.32 4.64 0 0 0 0.18 0.14 0.14a7.64 7.64 0 0 0 2.76 -5.04c0.32 -1.5 -0.4 -1.22 -0.54 -1z" stroke-width="1"></path><path d="M289.578894398 96.3998200312a3.24 3.24 0 1 0 1.0382628826 -6.3962809654 3.24 3.24 0 1 0 -1.0382628828 6.3962809654" stroke-width="1"></path><path d="M308.9 90a3.24 3.24 0 1 1 -3.24 3.24 3.24 3.24 0 0 1 3.24 -3.24zm19.8 0a3.24 3.24 0 1 1 -3.24 3.24 3.24 3.24 0 0 1 3.24 -3.24zm-61.76 203.2a1.54 1.54 0 1 1 -1.54 1.54 1.52 1.52 0 0 1 1.54 -1.54zm-0.2 -11.6a1.54 1.54 0 1 1 -1.54 1.54 1.54 1.54 0 0 1 1.54 -1.54zm0.34 -11.76a1.56 1.56 0 0 1 1.56 1.56 1.56 1.56 0 1 1 -1.56 -1.56z" stroke-width="1"></path></g></svg>